# xmcd
#
# Track frame offsets: 
#        150
#        13077
#        25455
#        38435
#        47680
#        61267
#        71057
#        80585
#        92940
#        104500
#        114942
#        128240
#        138597
#        152325
#        164112
#        175280
#        188215
#        201735
#        214050
#        226662
#        238975
#        253355
#        266500
#        279330
#        292120
#        303440
#        316570
#        328262
#        340930
#
# Disc length: 4697 seconds
#
# Revision: 6
# Processed by: cddbd v1.5.2PL0 Copyright (c) Steve Scherf et al.
# Submitted via: ExactAudioCopyFreeDBPlugin 1.0
#
DISCID=b712571d
DTITLE=Various Artist - A Shot in the Dark:  Tennessee Jive - Country
DTITLE=on Nashville Independent Labels, 1945-1955 [Bear Family box se
DTITLE=t]
DYEAR=2000
DGENRE=Country
TTITLE0=Francis Craig - Near You
TTITLE1=The Sunshine Boys - Danger Zone
TTITLE2=Bob Jennings and The Eagle Rangers - That Old Moon Seems to Know
TTITLE3=Buck Buchanon and The Rhythm Rogues - Lover's Blues
TTITLE4=Big Jeff - After We Are Through
TTITLE5=Big Jeff - Hom Bru Boogie
TTITLE6=Big Jeff - Ten-E-Cee Hom Bru
TTITLE7=Vernon Way and His Carolina Swing Band - Chili Dippin' Mama
TTITLE8=Dick Stratton - Fat Gal Boogie (with The Night Owls)
TTITLE9=Ray Anderson - You're the Two Timin' Kind
TTITLE10=John Talley - Hillbilly Sweetheart
TTITLE11=Dick Stratton - Music City USA
TTITLE12=Allen Flatt - Steppin' Out
TTITLE13=Ray Anderson and The Tennessee Mountaineers - I'm Lonely Becaus
TTITLE13=e
TTITLE14=Ray Anderson and The Tennessee Mountaineers - Draft Board Blues
TTITLE15=John Talley - If You've Got the Money, I've Got the Time
TTITLE16=Allen Flatt - A Broken Heart and a Glass of Beer (with The Ni
TTITLE16=ght Owls)
TTITLE17=Shorty Ashburn - You're Under Arrest
TTITLE18=Vance Morris and His Alabama Playboys - Crazy 'Bout the Boogie
TTITLE19=Vance Morris and His Alabama Playboys - Slap Happy Pappy
TTITLE20=Dixie Ramblers - Lonely for You
TTITLE21=Bob West - Weeds of Hate
TTITLE22=Ray Batts - Maybe It's You, Sweetheart, Maybe It's Me
TTITLE23=Jack Toombs - You're the Only Good Thing
TTITLE24=Don Haggard and Judy Bess - Somebody Clipped Your Wings
TTITLE25=Rainbow Valley Boys - Broken Hearts Mean Nothing to You
TTITLE26=Slim Lay and The Crossroads Follies Gang - Talkin' 'Bout Susie
TTITLE27=Tommy Smith - I'm a Fool
TTITLE28=Big Jeff and The Radio Playboys - Step it Up and Go
EXTD=Volume #7 of a 8-CD Box Set -BCD 15854
EXTT0=
EXTT1=
EXTT2=
EXTT3=
EXTT4=
EXTT5=
EXTT6=
EXTT7=
EXTT8=
EXTT9=
EXTT10=
EXTT11=
EXTT12=
EXTT13=
EXTT14=
EXTT15=
EXTT16=
EXTT17=
EXTT18=
EXTT19=
EXTT20=
EXTT21=
EXTT22=
EXTT23=
EXTT24=
EXTT25=
EXTT26=
EXTT27=
EXTT28=
PLAYORDER=
